<svg width="387" height="93" viewBox="0 0 387 93" fill="none" xmlns="http://www.w3.org/2000/svg">
<path d="M235.659 43.2854C237.818 44.8845 237.818 48.1155 235.659 49.7146L211.88 67.3229C209.241 69.2779 205.5 67.3933 205.5 64.1084V28.8916C205.5 25.6067 209.241 23.7221 211.88 25.6771L235.659 43.2854Z" fill="white" stroke="#BA1C1C" stroke-width="12"/>
<path d="M41.3695 21.6369C41.0883 18.8081 39.8816 16.6105 37.7492 15.0441C35.6169 13.4778 32.723 12.6946 29.0676 12.6946C26.5838 12.6946 24.4866 13.0452 22.7761 13.7466C21.0655 14.4246 19.7533 15.3714 18.8395 16.5871C17.949 17.8028 17.5038 19.1821 17.5038 20.7251C17.457 22.0109 17.7264 23.1331 18.3122 24.0916C18.9215 25.0502 19.7533 25.8801 20.8078 26.5814C21.8622 27.2594 23.0807 27.8556 24.4632 28.3699C25.8457 28.8609 27.3219 29.2817 28.8919 29.6324L35.3592 31.1753C38.4991 31.8767 41.3812 32.8118 44.0056 33.9808C46.63 35.1497 48.903 36.5875 50.8244 38.2941C52.7458 40.0008 54.2338 42.0113 55.2882 44.3258C56.3661 46.6403 56.9168 49.2937 56.9402 52.2862C56.9168 56.6814 55.792 60.4921 53.566 63.7183C51.3633 66.9212 48.1766 69.411 44.0056 71.1878C39.8581 72.9412 34.8554 73.8179 28.9973 73.8179C23.1861 73.8179 18.1248 72.9295 13.8133 71.1527C9.52518 69.3759 6.17438 66.7458 3.76086 63.2624C1.37078 59.7557 0.117161 55.4189 0 50.2523H14.7271C14.8911 52.6603 15.5824 54.6708 16.8009 56.2839C18.0428 57.8737 19.6947 59.0777 21.7568 59.8959C23.8422 60.6908 26.1972 61.0882 28.8216 61.0882C31.3991 61.0882 33.6369 60.7142 35.5349 59.9661C37.4563 59.2179 38.9443 58.1776 39.9987 56.845C41.0532 55.5124 41.5804 53.9811 41.5804 52.2511C41.5804 50.638 41.1 49.2821 40.1393 48.1833C39.202 47.0845 37.8195 46.1493 35.9918 45.3778C34.1875 44.6063 31.9732 43.905 29.3488 43.2738L21.5107 41.31C15.4418 39.8371 10.6499 37.5343 7.1351 34.4016C3.62027 31.2689 1.87457 27.049 1.89801 21.7421C1.87457 17.3937 3.03447 13.5946 5.37769 10.345C7.74434 7.0954 10.9897 4.55883 15.1138 2.7353C19.2378 0.911765 23.9243 0 29.1731 0C34.5156 0 39.1786 0.911765 43.1621 2.7353C47.169 4.55883 50.2855 7.0954 52.5115 10.345C54.7376 13.5946 55.8857 17.3586 55.956 21.6369H41.3695Z" fill="white"/>
<path d="M95.6121 18.9367V30.1584H63.0999V18.9367H95.6121ZM70.4811 6.03168H85.4542V56.2489C85.4542 57.6282 85.6651 58.7036 86.0869 59.4751C86.5087 60.2232 87.0945 60.7492 87.8443 61.0532C88.6176 61.3571 89.508 61.5091 90.5156 61.5091C91.2185 61.5091 91.9215 61.4506 92.6245 61.3337C93.3274 61.1934 93.8664 61.0882 94.2413 61.0181L96.5962 72.1346C95.8464 72.3684 94.7919 72.6373 93.4329 72.9412C92.0738 73.2685 90.4218 73.4672 88.477 73.5373C84.8684 73.6776 81.7051 73.1983 78.9869 72.0995C76.2922 71.0008 74.1951 69.2941 72.6954 66.9796C71.1957 64.6652 70.4576 61.7428 70.4811 58.2127V6.03168Z" fill="white"/>
<path d="M105.366 72.8009V18.9367H119.882V28.3348H120.444C121.428 24.9917 123.08 22.4668 125.4 20.7602C127.72 19.0302 130.391 18.1652 133.414 18.1652C134.164 18.1652 134.972 18.2119 135.839 18.3054C136.706 18.3989 137.468 18.5275 138.124 18.6912V31.9468C137.421 31.7364 136.449 31.5494 135.207 31.3857C133.965 31.2221 132.828 31.1403 131.797 31.1403C129.595 31.1403 127.626 31.6195 125.892 32.5781C124.182 33.5132 122.823 34.8224 121.815 36.5057C120.831 38.1889 120.339 40.1293 120.339 42.3269V72.8009H105.366Z" fill="white"/>
<path d="M167.956 73.8529C162.403 73.8529 157.622 72.7308 153.616 70.4864C149.632 68.2187 146.562 65.0158 144.407 60.8778C142.251 56.7164 141.173 51.7952 141.173 46.1143C141.173 40.5735 142.251 35.7108 144.407 31.526C146.562 27.3413 149.597 24.0799 153.51 21.7421C157.447 19.4042 162.063 18.2353 167.358 18.2353C170.92 18.2353 174.236 18.8081 177.305 19.9536C180.398 21.0758 183.093 22.7707 185.39 25.0385C187.709 27.3062 189.514 30.1584 190.802 33.595C192.091 37.0083 192.736 41.006 192.736 45.5882V49.6912H147.148V40.4333H178.641C178.641 38.2824 178.172 36.3771 177.235 34.7172C176.298 33.0573 174.997 31.7598 173.334 30.8247C171.693 29.8661 169.784 29.3869 167.605 29.3869C165.332 29.3869 163.316 29.9129 161.559 30.9649C159.825 31.9936 158.466 33.3846 157.482 35.138C156.498 36.868 155.994 38.7968 155.97 40.9242V49.7262C155.97 52.3914 156.463 54.6942 157.447 56.6346C158.454 58.575 159.872 60.0713 161.7 61.1233C163.527 62.1753 165.695 62.7014 168.202 62.7014C169.866 62.7014 171.389 62.4676 172.771 62C174.154 61.5324 175.337 60.8311 176.321 59.8959C177.305 58.9608 178.055 57.8152 178.571 56.4593L192.419 57.371C191.716 60.6908 190.275 63.5897 188.096 66.0679C185.94 68.5226 183.152 70.4397 179.731 71.819C176.333 73.175 172.408 73.8529 167.956 73.8529Z" fill="white"/>
<path d="M248.322 72.8009V18.9367H262.593V28.44H263.225C264.35 25.2839 266.225 22.7941 268.849 20.9706C271.473 19.1471 274.613 18.2353 278.269 18.2353C281.971 18.2353 285.123 19.1587 287.724 21.0057C290.325 22.8292 292.059 25.3073 292.926 28.44H293.488C294.589 25.3541 296.581 22.8876 299.463 21.0407C302.369 19.1704 305.802 18.2353 309.762 18.2353C314.8 18.2353 318.889 19.8367 322.028 23.0396C325.192 26.2191 326.773 30.7311 326.773 36.5758V72.8009H311.835V39.5215C311.835 36.529 311.039 34.2847 309.445 32.7885C307.852 31.2922 305.86 30.5441 303.47 30.5441C300.752 30.5441 298.631 31.4091 297.108 33.1391C295.585 34.8458 294.824 37.1018 294.824 39.9072V72.8009H280.307V39.2059C280.307 36.5641 279.546 34.46 278.023 32.8937C276.523 31.3273 274.543 30.5441 272.083 30.5441C270.419 30.5441 268.919 30.9649 267.584 31.8066C266.272 32.6248 265.229 33.7821 264.456 35.2783C263.682 36.7511 263.296 38.4811 263.296 40.4683V72.8009H248.322Z" fill="white"/>
<path d="M345.912 93C344.014 93 342.233 92.848 340.569 92.5441C338.929 92.2636 337.57 91.9012 336.492 91.457L339.866 80.3054C341.624 80.8431 343.205 81.1354 344.611 81.1821C346.041 81.2289 347.271 80.9016 348.302 80.2002C349.356 79.4989 350.211 78.3066 350.868 76.6233L351.746 74.3439L332.38 18.9367H348.126L359.303 58.4932H359.866L371.148 18.9367H387L366.016 78.6222C365.009 81.5211 363.638 84.046 361.904 86.1968C360.194 88.371 358.026 90.0426 355.402 91.2115C352.777 92.4038 349.614 93 345.912 93Z" fill="white"/>
</svg>
