<svg width="418" height="96" viewBox="0 0 418 96" fill="none" xmlns="http://www.w3.org/2000/svg">
<path d="M143.738 44.3008C145.869 45.9009 145.869 49.0991 143.738 50.6991L116.901 70.8414C114.264 72.8205 110.5 70.9391 110.5 67.6423V27.3577C110.5 24.0609 114.264 22.1795 116.901 24.1586L143.738 44.3008Z" fill="white" stroke="#BA1C1C" stroke-width="14"/>
<path d="M42.5474 22.3348C42.2582 19.4148 41.0171 17.1463 38.824 15.5294C36.631 13.9125 33.6547 13.1041 29.8952 13.1041C27.3407 13.1041 25.1838 13.4661 23.4246 14.19C21.6653 14.8899 20.3157 15.8673 19.3759 17.1222C18.4601 18.3771 18.0022 19.8009 18.0022 21.3937C17.954 22.721 18.2311 23.8793 18.8336 24.8688C19.4602 25.8582 20.3157 26.7149 21.4002 27.4389C22.4847 28.1388 23.7378 28.7541 25.1597 29.2851C26.5816 29.7919 28.0998 30.2262 29.7145 30.5882L36.3659 32.181C39.5952 32.905 42.5594 33.8703 45.2586 35.0769C47.9577 36.2836 50.2953 37.7677 52.2715 39.5294C54.2476 41.2911 55.7779 43.3665 56.8624 45.7557C57.971 48.1448 58.5373 50.8839 58.5614 53.9729C58.5373 58.5098 57.3805 62.4434 55.0911 65.7738C52.8257 69.0799 49.5482 71.6501 45.2586 73.4842C40.993 75.2941 35.8478 76.1991 29.8229 76.1991C23.8463 76.1991 18.6408 75.2821 14.2066 73.448C9.79638 71.6139 6.35018 68.8989 3.86794 65.3032C1.40981 61.6833 0.120497 57.2066 0 51.8733H15.1464C15.3151 54.359 16.0261 56.4344 17.2792 58.0995C18.5565 59.7406 20.2555 60.9834 22.3762 61.828C24.5211 62.6486 26.9431 63.0588 29.6422 63.0588C32.2931 63.0588 34.5946 62.6727 36.5466 61.9005C38.5228 61.1282 40.0531 60.0543 41.1376 58.6787C42.222 57.3032 42.7643 55.7225 42.7643 53.9366C42.7643 52.2715 42.2702 50.8718 41.2822 49.7376C40.3182 48.6033 38.8963 47.638 37.0166 46.8416C35.1609 46.0452 32.8835 45.3213 30.1844 44.6697L22.1232 42.6425C15.8815 41.1222 10.9531 38.7451 7.33825 35.5113C3.72335 32.2775 1.92795 27.9216 1.95205 22.4434C1.92795 17.9548 3.12086 14.0332 5.5308 10.6787C7.96483 7.32429 11.3026 4.70588 15.5441 2.82353C19.7856 0.941177 24.6054 0 30.0037 0C35.4983 0 40.2941 0.941177 44.391 2.82353C48.512 4.70588 51.7172 7.32429 54.0066 10.6787C56.296 14.0332 57.4769 17.9186 57.5492 22.3348H42.5474Z" fill="white"/>
<path d="M98.3343 19.5475V31.1312H64.8965V19.5475H98.3343ZM72.4878 6.22625H87.8873V58.0634C87.8873 59.4872 88.1042 60.5973 88.5379 61.3937C88.9717 62.1659 89.5742 62.7089 90.3454 63.0226C91.1407 63.3363 92.0565 63.4932 93.0927 63.4932C93.8157 63.4932 94.5387 63.4329 95.2617 63.3122C95.9846 63.1674 96.5389 63.0588 96.9245 62.9864L99.3465 74.4615C98.5753 74.7029 97.4909 74.9804 96.0931 75.2941C94.6953 75.632 92.9963 75.8371 90.9961 75.9095C87.2848 76.0543 84.0314 75.5596 81.2358 74.4253C78.4644 73.2911 76.3075 71.5294 74.7652 69.1403C73.2228 66.7511 72.4637 63.7345 72.4878 60.0905V6.22625Z" fill="white"/>
<path d="M180.79 76.2353C175.079 76.2353 170.162 75.0769 166.041 72.7602C161.945 70.4193 158.788 67.1131 156.57 62.8416C154.353 58.546 153.245 53.4661 153.245 47.6018C153.245 41.8824 154.353 36.8627 156.57 32.543C158.788 28.2232 161.908 24.8567 165.933 22.4434C169.982 20.0302 174.729 18.8235 180.176 18.8235C183.839 18.8235 187.249 19.4148 190.406 20.5973C193.587 21.7557 196.358 23.5053 198.72 25.8462C201.106 28.187 202.962 31.1312 204.287 34.6787C205.613 38.2021 206.275 42.3288 206.275 47.0588V51.2941H159.39V41.7376H191.78C191.78 39.5173 191.298 37.5505 190.334 35.8371C189.37 34.1237 188.032 32.7843 186.321 31.819C184.634 30.8296 182.67 30.3348 180.429 30.3348C178.091 30.3348 176.019 30.8778 174.211 31.9638C172.428 33.0256 171.03 34.4615 170.018 36.2715C169.006 38.0573 168.488 40.0483 168.463 42.2443V51.3303C168.463 54.0814 168.969 56.4585 169.982 58.4615C171.018 60.4646 172.476 62.009 174.356 63.095C176.235 64.181 178.465 64.724 181.043 64.724C182.754 64.724 184.321 64.4827 185.743 64C187.164 63.5173 188.382 62.7934 189.394 61.828C190.406 60.8627 191.177 59.6802 191.707 58.2805L205.95 59.2217C205.227 62.6486 203.745 65.641 201.504 68.1991C199.286 70.733 196.419 72.7119 192.9 74.1357C189.406 75.5354 185.369 76.2353 180.79 76.2353Z" fill="white"/>
<path d="M232.158 76.1991C228.615 76.1991 225.458 75.5837 222.687 74.3529C219.915 73.098 217.722 71.2519 216.108 68.8145C214.517 66.3529 213.722 63.2881 213.722 59.6199C213.722 56.5309 214.288 53.9366 215.421 51.8371C216.554 49.7376 218.096 48.0483 220.048 46.7692C222 45.4902 224.217 44.5249 226.699 43.8733C229.206 43.2217 231.833 42.7632 234.58 42.4977C237.809 42.1599 240.412 41.8462 242.388 41.5566C244.364 41.2428 245.798 40.7843 246.69 40.181C247.582 39.5777 248.027 38.6848 248.027 37.5023V37.2851C248.027 34.9925 247.304 33.2187 245.858 31.9638C244.437 30.7089 242.412 30.0814 239.785 30.0814C237.014 30.0814 234.809 30.6968 233.17 31.9276C231.531 33.1342 230.447 34.6546 229.917 36.4887L215.674 35.3303C216.397 31.9517 217.819 29.0317 219.94 26.5701C222.06 24.0845 224.796 22.178 228.145 20.8507C231.519 19.4992 235.423 18.8235 239.858 18.8235C242.942 18.8235 245.895 19.1855 248.714 19.9095C251.558 20.6335 254.076 21.7557 256.269 23.276C258.486 24.7964 260.234 26.7511 261.511 29.1403C262.788 31.5053 263.427 34.3409 263.427 37.6471V75.1493H248.823V67.4389H248.389C247.497 69.1765 246.304 70.7089 244.81 72.0362C243.316 73.3394 241.521 74.365 239.424 75.1131C237.327 75.8371 234.905 76.1991 232.158 76.1991ZM236.568 65.5566C238.833 65.5566 240.834 65.1101 242.569 64.2172C244.304 63.3002 245.666 62.0694 246.654 60.5249C247.642 58.9804 248.136 57.2308 248.136 55.276V49.3756C247.654 49.6893 246.991 49.9789 246.148 50.2443C245.328 50.4857 244.4 50.7149 243.364 50.9321C242.328 51.1252 241.292 51.3062 240.255 51.4751C239.219 51.6199 238.279 51.7526 237.436 51.8733C235.628 52.1388 234.05 52.5611 232.7 53.1403C231.351 53.7195 230.302 54.5038 229.555 55.4932C228.808 56.4585 228.435 57.6652 228.435 59.1131C228.435 61.2127 229.194 62.8175 230.712 63.9276C232.254 65.0136 234.206 65.5566 236.568 65.5566Z" fill="white"/>
<path d="M275.374 75.1493V19.5475H290.051V29.3575H290.701C291.858 26.0995 293.786 23.5294 296.485 21.6471C299.184 19.7647 302.414 18.8235 306.173 18.8235C309.981 18.8235 313.222 19.7768 315.897 21.6833C318.572 23.5656 320.355 26.1237 321.247 29.3575H321.826C322.958 26.1719 325.007 23.6259 327.971 21.7195C330.959 19.7888 334.49 18.8235 338.563 18.8235C343.744 18.8235 347.949 20.4766 351.179 23.7828C354.432 27.0649 356.059 31.7225 356.059 37.7557V75.1493H340.695V40.7964C340.695 37.7074 339.876 35.3906 338.237 33.8462C336.598 32.3017 334.55 31.5294 332.092 31.5294C329.296 31.5294 327.115 32.4223 325.549 34.2081C323.982 35.9698 323.199 38.2986 323.199 41.1946V75.1493H308.27V40.4706C308.27 37.7436 307.486 35.5716 305.92 33.9548C304.378 32.3379 302.341 31.5294 299.811 31.5294C298.1 31.5294 296.557 31.9638 295.184 32.8326C293.834 33.6772 292.762 34.8718 291.966 36.4163C291.171 37.9367 290.774 39.7225 290.774 41.7738V75.1493H275.374Z" fill="white"/>
<path d="M375.742 96C373.79 96 371.958 95.8431 370.247 95.5294C368.56 95.2398 367.162 94.8658 366.054 94.4072L369.524 82.8959C371.332 83.451 372.958 83.7526 374.404 83.8009C375.874 83.8492 377.14 83.5113 378.2 82.7873C379.284 82.0633 380.164 80.8326 380.839 79.095L381.743 76.7421L361.824 19.5475H378.019L389.515 60.3801H390.093L401.697 19.5475H418L396.419 81.1584C395.383 84.1508 393.973 86.7572 392.19 88.9774C390.43 91.2217 388.201 92.9472 385.502 94.1538C382.803 95.3846 379.549 96 375.742 96Z" fill="white"/>
</svg>
